<?xml version="1.0" standalone="no"?>
<!DOCTYPE svg PUBLIC "-//W3C//DTD SVG 20010904//EN"
 "http://www.w3.org/TR/2001/REC-SVG-20010904/DTD/svg10.dtd">
<svg version="1.0" xmlns="http://www.w3.org/2000/svg"
 width="469.000000pt" height="469.000000pt" viewBox="0 0 469.000000 469.000000"
 preserveAspectRatio="xMidYMid meet">
<metadata>
Created by potrace 1.11, written by Peter Selinger 2001-2013
</metadata>
<g transform="translate(0.000000,469.000000) scale(0.100000,-0.100000)"
fill="#000000" stroke="none">
<path d="M2180 4327 c-3 -3 -39 -7 -80 -10 -65 -6 -103 -11 -206 -31 -64 -13
-161 -40 -171 -48 -7 -6 -13 -8 -13 -4 0 3 -21 -3 -47 -13 -27 -10 -51 -19
-55 -20 -60 -13 -279 -124 -387 -195 -173 -116 -350 -275 -466 -421 -22 -27
-42 -52 -45 -55 -30 -30 -216 -340 -204 -340 2 0 -2 -10 -10 -22 -31 -48 -124
-320 -140 -408 -2 -14 -9 -56 -16 -95 -6 -38 -15 -86 -19 -105 -9 -43 -6 -416
4 -485 68 -474 289 -901 625 -1208 47 -43 95 -85 107 -95 12 -9 30 -24 40 -32
88 -73 332 -213 453 -259 30 -12 64 -26 75 -30 43 -19 221 -68 315 -86 147
-29 419 -40 580 -24 95 10 271 46 365 74 246 73 506 214 707 383 124 104 266
256 338 362 13 19 27 37 30 40 16 13 117 191 160 283 57 122 121 308 145 427
9 47 19 94 21 105 19 94 25 383 12 525 -4 41 -15 113 -24 160 -9 47 -18 94
-20 105 -14 76 -116 351 -154 415 -5 8 -20 38 -35 67 -38 76 -147 235 -220
322 -184 220 -421 404 -670 521 -49 24 -98 47 -107 51 -10 5 -53 20 -95 34
-43 14 -91 30 -108 36 -41 14 -195 47 -280 60 -72 11 -397 23 -405 16z"/>
</g>
</svg>
