<?xml version="1.0" standalone="no"?>
<!DOCTYPE svg PUBLIC "-//W3C//DTD SVG 20010904//EN"
 "http://www.w3.org/TR/2001/REC-SVG-20010904/DTD/svg10.dtd">
<svg version="1.0" xmlns="http://www.w3.org/2000/svg"
 width="407.000000pt" height="407.000000pt" viewBox="0 0 407.000000 407.000000"
 preserveAspectRatio="xMidYMid meet">
<metadata>
Created by potrace 1.11, written by Peter Selinger 2001-2013
</metadata>
<g transform="translate(0.000000,407.000000) scale(0.100000,-0.100000)"
fill="#000000" stroke="none">
<path d="M1910 4026 c-3 -2 -43 -7 -90 -10 -81 -6 -231 -36 -352 -70 -79 -22
-293 -108 -338 -136 -8 -5 -58 -33 -110 -63 -322 -185 -601 -488 -776 -842
-58 -118 -137 -334 -150 -410 -2 -16 -11 -62 -19 -102 -22 -108 -29 -193 -30
-353 0 -248 27 -424 96 -635 167 -503 536 -930 1004 -1161 66 -32 134 -64 150
-71 57 -22 150 -54 172 -59 12 -2 34 -9 47 -14 39 -14 233 -50 316 -58 95 -9
345 -9 430 1 36 3 104 14 150 23 47 9 94 18 105 20 31 6 232 72 273 90 20 8
53 23 72 32 19 8 37 16 40 16 23 3 248 140 332 202 123 91 312 278 394 389 32
44 63 84 67 90 42 53 150 256 210 395 47 110 112 377 125 515 15 162 6 429
-18 555 -6 30 -13 69 -16 85 -8 50 -24 105 -65 227 -118 349 -353 680 -654
919 -280 223 -641 372 -1005 415 -55 7 -355 15 -360 10z"/>
</g>
</svg>
